<?xml version="1.0" encoding="UTF-8" standalone="no"?>
<svg
   viewBox="0 0 415.10997 415.10998"
   version="1.1"
   id="svg5"
   sodipodi:docname="logo.svg"
   inkscape:version="1.4.2 (1:1.4.2+202505120738+ebf0e940d0)"
   width="415.10999"
   height="415.10999"
   inkscape:export-filename="logo.png"
   inkscape:export-xdpi="96"
   inkscape:export-ydpi="96"
   xmlns:inkscape="http://www.inkscape.org/namespaces/inkscape"
   xmlns:sodipodi="http://sodipodi.sourceforge.net/DTD/sodipodi-0.dtd"
   xmlns="http://www.w3.org/2000/svg"
   xmlns:svg="http://www.w3.org/2000/svg"
   xmlns:rdf="http://www.w3.org/1999/02/22-rdf-syntax-ns#"
   xmlns:cc="http://creativecommons.org/ns#"
   xmlns:dc="http://purl.org/dc/elements/1.1/">
  <defs
     id="defs5" />
  <sodipodi:namedview
     id="namedview5"
     pagecolor="#ffffff"
     bordercolor="#666666"
     borderopacity="1.0"
     inkscape:showpageshadow="2"
     inkscape:pageopacity="0.0"
     inkscape:pagecheckerboard="0"
     inkscape:deskcolor="#d1d1d1"
     inkscape:zoom="0.65939184"
     inkscape:cx="228.24062"
     inkscape:cy="499.70288"
     inkscape:window-width="1860"
     inkscape:window-height="1016"
     inkscape:window-x="60"
     inkscape:window-y="27"
     inkscape:window-maximized="1"
     inkscape:current-layer="svg5" />
  <title
     id="title1">Ativo 1logo fapesp em preto</title>
  <g
     id="Camada_2"
     data-name="Camada 2"
     transform="translate(0,67.844993)">
    <g
       id="Camada_1-2"
       data-name="Camada 1">
      <path
         d="M 207.8,137.19 C 217.39,104.92 226.98,72.64 237.06,40.36 214.36,16.65 189.65,0 159.9,0 129.63,0 95.33,16.65 58,40.36 Q 43.63,88.78 29.26,137.19 C 19.18,169.47 9.59,201.76 0,234.53 36.82,211.34 71.12,195.7 100.89,195.7 c 30.25,0 55,15.64 77.67,38.83 9.57,-32.77 19.65,-65.06 29.24,-97.34"
         id="path1"
         style="fill:#00427f;fill-opacity:1" />
      <path
         id="polygon2"
         d="M 402.92,83.73 415.11,40.86 H 238.07 L 401.14,84.88 356.6,234.54 H 177.04 l 167.45,44.88 z"
         sodipodi:nodetypes="cccccccc"
         style="fill:#00427f;fill-opacity:1" />
      <path
         d="m 367.10446,116.18661 c -5.38305,-5.3782 -15.65445,-8.06972 -30.32448,-8.06972 h -34.49034 l -19.32559,66.04177 -8.55957,28.85993 h 32.52627 l 9.30151,-31.55146 h 6.6051 c 2.90981,0 5.868,-0.24248 8.80203,-0.48496 8.32194,-1.2221 15.65446,-3.66629 22.01232,-7.82239 8.55948,-5.3879 14.18993,-12.72533 16.88142,-22.26449 3.39468,-11.00372 2.19686,-19.32078 -3.42867,-24.70382 m -26.9055,22.74944 c -1.22697,3.67114 -2.90982,6.11534 -5.86808,7.82724 a 9.2481754,9.2481754 0 0 1 -2.69149,1.2221 c -2.42479,0.96992 -5.38305,1.45488 -9.05419,1.45488 l 6.12016,-21.03269 h 2.90981 c 3.42375,0.24248 6.11531,0.96992 7.57991,2.69152 1.71676,1.70706 1.93985,4.39859 0.96989,7.8224"
         id="path3"
         style="fill:#00427f;fill-opacity:1;stroke-width:0.484959" />
      <path
         d="m 277.11543,159.73111 c -1.71676,-4.16095 -6.60518,-9.30152 -14.42756,-15.65933 0,-0.24248 -0.25216,-0.24248 -0.74195,-0.73229 -4.39864,-3.42381 -6.35302,-6.35782 -5.62068,-8.80687 a 7.0804067,7.0804067 0 0 1 3.4189,-4.1561 12.967814,12.967814 0 0 1 6.36271,-1.7119 c 2.9388,0 5.62552,0.73713 8.80688,1.93983 a 55.73153,55.73153 0 0 1 8.0697,4.64107 2.4247968,2.4247968 0 0 0 1.22697,0.96992 l 7.08519,-24.46136 a 58.733428,58.733428 0 0 0 -8.31216,-3.18133 c -1.45491,-0.24248 -2.69157,-0.72744 -3.91362,-0.96992 a 54.223306,54.223306 0 0 0 -12.47317,-1.45487 c -10.5188,0 -19.81544,2.69152 -27.89001,7.83209 -8.32675,5.14057 -13.48187,11.75056 -15.90667,19.82029 -1.2221,4.6459 -1.2221,9.04934 0.24733,12.96296 1.71191,4.16095 6.36267,9.78648 13.94743,17.11907 a 0.23763008,0.23763008 0 0 0 0.23764,0.24732 c 4.16094,4.40344 6.12018,7.58477 5.37819,9.78164 a 7.589614,7.589614 0 0 1 -3.91362,4.89809 12.536199,12.536199 0 0 1 -6.84278,1.93983 c -2.90975,0 -6.11533,-0.96992 -9.53915,-2.42479 a 60.38229,60.38229 0 0 1 -7.58476,-4.40829 15.402309,15.402309 0 0 1 -3.18133,-2.42479 l -7.8224,26.1878 a 55.503599,55.503599 0 0 0 11.00373,5.13572 c 0.24248,0.24248 0.73713,0.24248 0.96991,0.48496 a 57.084566,57.084566 0 0 0 12.96297,1.71676 c 11.98819,0 22.26445,-2.9437 31.06649,-8.56438 8.80203,-5.62068 14.67972,-12.96781 17.37128,-22.25964 1.71192,-5.62552 1.45483,-10.27629 0,-14.42754"
         id="path4"
         style="fill:#00427f;fill-opacity:1;stroke-width:0.484959" />
    </g>
  </g>
  <metadata
     id="metadata5">
    <rdf:RDF>
      <cc:Work
         rdf:about="">
        <dc:title>Ativo 1logo fapesp em preto</dc:title>
      </cc:Work>
    </rdf:RDF>
  </metadata>
</svg>
